<svg xmlns="http://www.w3.org/2000/svg" width="45" height="66" viewBox="0 0 45 66"><defs><style>.a{fill:#fff;}</style></defs><title>logo</title><path class="a" d="M20.74,0A25.79,25.79,0,0,0,16.6.23c-3.11.42-9.36,1.27-13.31,6.1A15.75,15.75,0,0,0,0,16.72v5L0.11,66c5.78-1.69,9.94-6.61,10.18-16.58V11.72A9.06,9.06,0,0,1,12.1,6.1C14.5,3,18.28,2.79,20,2.68a13.47,13.47,0,0,1,9,2.82c5.15,4.19,5.28,11.26,5.28,14.9,0,13.73-5.72,19.2-14.22,19.41v0.75c14.4-.34,24.18-8.94,24.18-20.58A21.3,21.3,0,0,0,42,10.57C36.54,0.43,23,.07,20.74,0"/></svg>